{"accessors":[{"bufferView":0,"byteOffset":0,"componentType":5126,"count":24,"max":[0.100000001490116,0.000500000023748726,0.174999997019768],"min":[-0.10000000149012,-0.00050000002375,-0.17499999701977],"normalized":false,"type":"VEC3"},{"bufferView":1,"byteOffset":0,"componentType":5126,"count":24,"max":[1,0,1,1],"min":[-1,-0.00001525925472,-1,1],"normalized":false,"type":"VEC4"},{"bufferView":2,"byteOffset":0,"componentType":5126,"count":24,"max":[1,1,1],"min":[-1,-1,-1],"normalized":false,"type":"VEC3"},{"bufferView":3,"byteOffset":0,"componentType":5126,"count":24,"max":[1,1],"min":[0,0],"normalized":false,"type":"VEC2"},{"bufferView":4,"byteOffset":0,"componentType":5123,"count":36,"max":[23],"min":[0],"normalized":false,"type":"SCALAR"}],"asset":{"generator":"Godot Engine v4.3.stable.steam@77dcf97d82cbfe4e4615475fa52ca03da645dbd8","version":"2.0"},"bufferViews":[{"buffer":0,"byteLength":288,"byteOffset":0,"byteStride":12,"target":34962},{"buffer":0,"byteLength":384,"byteOffset":288,"byteStride":16,"target":34962},{"buffer":0,"byteLength":288,"byteOffset":672,"byteStride":12,"target":34962},{"buffer":0,"byteLength":192,"byteOffset":960,"byteStride":8,"target":34962},{"buffer":0,"byteLength":72,"byteOffset":1152,"target":34963}],"buffers":[{"byteLength":1224,"uri":"roomNote0.bin"}],"extensions":{"OMI_physics_shape":{"shapes":[{"box":{"size":[0.202148005366325,0.401917010545731,0.352539002895355]},"type":"box"}]}},"extensionsUsed":["GODOT_single_root","OMI_physics_body","OMI_physics_shape"],"images":[{"uri":"textures%2F_albedo000.png"}],"materials":[{"extensions":{},"pbrMetallicRoughness":{"baseColorFactor":[0.99999988079071,0.99999988079071,0.99999988079071,1],"baseColorTexture":{"index":0},"metallicFactor":0,"roughnessFactor":1}}],"meshes":[{"extras":{"targetNames":[]},"primitives":[{"attributes":{"NORMAL":2,"POSITION":0,"TANGENT":1,"TEXCOORD_0":3},"indices":4,"material":0,"mode":4}]}],"nodes":[{"children":[1,2],"mesh":0,"name":"MeshInstance3D","rotation":[0,-0.70710676908493,0,0.70710676908493],"scale":[1.20000004768372,1.20000004768372,1.20000004768372],"translation":[-0.0426025018096,0.00248837005347013,-0.00032281898893]},{"name":"Label3D","rotation":[-0.70710676908493,0,0,0.70710676908493],"translation":[-0.00000000622822,0.00105496996548027,-0.14233300089836]},{"children":[3],"extensions":{"OMI_physics_body":{"trigger":{"nodes":[3]}}},"name":"Area3D"},{"extensions":{"OMI_physics_body":{"trigger":{"shape":0}}},"name":"CollisionShape3D","translation":[0,0.19412299990654,0]}],"samplers":[{"magFilter":9729,"minFilter":9987,"wrapS":10497,"wrapT":10497}],"scene":0,"scenes":[{"nodes":[0]}],"textures":[{"sampler":0,"source":0}]}